<?xml version="1.0" standalone="no"?>
<!DOCTYPE svg PUBLIC "-//W3C//DTD SVG 20010904//EN"
 "http://www.w3.org/TR/2001/REC-SVG-20010904/DTD/svg10.dtd">
<svg version="1.0" xmlns="http://www.w3.org/2000/svg"
 width="800.000000pt" height="600.000000pt" viewBox="0 0 800.000000 600.000000"
 preserveAspectRatio="xMidYMid meet">
<metadata>
Created by potrace 1.16, written by Peter Selinger 2001-2019
</metadata>
<g transform="translate(0.000000,600.000000) scale(0.100000,-0.100000)"
fill="#000000" stroke="none">
<path d="M1057 5020 c-3 -11 -16 -24 -29 -29 -27 -10 -84 -71 -99 -105 -17
-41 -26 -136 -17 -197 10 -78 47 -142 99 -174 21 -14 39 -32 39 -40 0 -12 18
-15 100 -15 76 0 100 3 100 13 0 8 11 24 25 37 14 13 34 48 46 79 11 31 25 61
31 68 7 9 39 13 92 13 49 0 87 5 94 12 16 16 4 128 -16 151 -12 13 -31 17 -88
17 -83 0 -93 7 -119 74 -9 24 -30 53 -47 66 -17 13 -27 28 -24 36 4 11 -12 14
-88 14 -85 0 -94 -2 -99 -20z"/>
<path d="M3720 5028 c0 -7 -15 -25 -34 -40 -22 -18 -40 -45 -51 -77 -17 -51
-28 -61 -73 -61 -43 0 -53 -13 -67 -81 -18 -84 -10 -99 55 -99 55 0 72 -16 85
-78 4 -17 22 -50 41 -73 19 -22 34 -45 34 -50 0 -5 45 -9 100 -9 55 0 99 3 99
8 -4 21 4 31 31 42 37 15 74 64 91 118 7 23 18 42 26 42 20 0 19 146 -1 153
-8 3 -20 24 -26 46 -11 41 -59 98 -113 134 -15 10 -25 22 -22 28 4 5 -31 9
-84 9 -66 0 -91 -3 -91 -12z"/>
<path d="M1020 4174 c0 -9 -20 -38 -44 -65 -105 -116 -90 -346 27 -433 23 -17
46 -21 136 -24 102 -4 108 -3 137 21 19 16 36 46 47 81 10 30 23 59 29 63 7 3
60 7 119 7 136 1 143 6 134 95 -5 42 -13 71 -23 79 -10 8 -53 12 -124 12 -101
0 -108 1 -122 23 -8 12 -18 34 -21 49 -4 14 -15 34 -26 44 -10 9 -19 28 -19
41 0 23 -1 23 -125 23 -108 0 -125 -2 -125 -16z"/>
<path d="M3680 4166 c0 -13 -8 -34 -18 -47 -11 -13 -22 -37 -26 -54 -13 -50
-22 -55 -107 -55 -43 0 -80 -4 -83 -9 -3 -5 -9 -40 -12 -78 -9 -92 2 -103 95
-103 77 0 94 -11 105 -70 8 -42 35 -76 71 -90 34 -13 169 -13 217 0 42 12 89
65 108 123 6 21 18 41 26 44 20 8 20 149 0 156 -8 3 -20 24 -26 45 -6 23 -28
58 -50 81 -22 23 -40 50 -40 61 0 19 -7 20 -130 20 l-130 0 0 -24z"/>
<path d="M1000 3312 c0 -11 -9 -27 -21 -38 -56 -50 -85 -173 -67 -277 12 -69
40 -120 88 -160 30 -26 37 -27 144 -27 110 0 113 1 137 28 14 15 34 48 43 75
28 75 32 77 160 77 74 0 116 4 124 12 15 15 16 144 1 153 -6 4 -63 8 -127 9
-64 1 -122 5 -128 9 -16 9 -64 113 -64 137 0 19 -7 20 -145 20 -134 0 -145 -1
-145 -18z"/>
<path d="M3669 3288 c-16 -18 -32 -47 -35 -65 -9 -48 -27 -58 -115 -59 -104
-1 -113 -10 -104 -89 3 -33 11 -65 17 -72 6 -8 36 -13 77 -13 81 0 106 -15
122 -73 7 -23 23 -57 36 -74 l24 -33 119 0 118 0 45 44 c30 29 50 58 57 86 6
22 18 44 26 47 20 7 21 153 1 153 -8 0 -19 19 -26 42 -17 56 -58 108 -98 124
-20 9 -71 14 -133 14 -101 0 -101 0 -131 -32z"/>
<path d="M6381 1831 c-96 -33 -100 -41 -191 -366 -45 -159 -87 -295 -94 -301
-6 -6 -48 -18 -94 -27 -101 -20 -172 -50 -172 -73 0 -14 8 -15 53 -10 176 19
190 19 184 3 -16 -42 -109 -362 -127 -437 -41 -173 -19 -271 72 -318 93 -48
293 -27 500 53 174 67 431 214 426 244 -6 33 -50 23 -177 -43 -279 -143 -471
-173 -546 -85 -33 41 -34 118 0 277 23 107 89 360 97 367 2 2 53 17 113 35
242 69 455 184 455 244 0 46 -14 49 -67 17 -118 -73 -453 -215 -469 -199 -5 6
132 506 161 588 8 23 15 44 15 46 0 11 -92 1 -139 -15z"/>
<path d="M4040 1561 c-192 -42 -342 -123 -481 -261 -77 -76 -103 -110 -132
-171 -164 -340 120 -489 770 -403 190 24 394 75 440 109 17 13 17 15 -2 35
l-21 20 -76 -19 c-173 -44 -387 -51 -524 -16 -143 37 -233 111 -255 211 -7 30
-10 57 -6 60 9 10 213 42 337 53 63 6 206 15 317 21 271 13 342 30 364 88 36
94 -55 190 -242 254 -87 29 -105 32 -249 35 -123 2 -173 -1 -240 -16z m358
-80 c59 -27 112 -80 112 -115 0 -33 -40 -65 -101 -81 -30 -8 -157 -25 -284
-39 -126 -15 -257 -30 -289 -36 -33 -5 -61 -8 -63 -7 -10 10 59 120 102 163
104 104 212 145 370 141 78 -3 111 -8 153 -26z"/>
<path d="M5065 1301 c-47 -12 -94 -39 -109 -64 -63 -100 -2 -214 211 -394 71
-59 156 -135 191 -170 53 -53 62 -67 62 -98 0 -29 -6 -39 -32 -55 -126 -76
-438 96 -438 242 0 46 -19 58 -100 65 -49 5 -60 3 -79 -16 -39 -39 -23 -87 56
-162 65 -62 127 -103 236 -154 124 -58 212 -78 324 -74 115 5 175 33 211 99
50 95 10 162 -198 328 -185 148 -227 187 -262 241 -35 55 -35 81 -3 111 67 63
300 13 379 -80 31 -38 32 -55 5 -99 -22 -37 -20 -43 30 -60 143 -48 243 55
161 167 -36 50 -174 121 -295 153 -86 22 -296 35 -350 20z"/>
</g>
</svg>
